<svg width="23" height="22" viewBox="0 0 23 22" fill="none" xmlns="http://www.w3.org/2000/svg">
<path fill-rule="evenodd" clip-rule="evenodd" d="M14.3787 13.8787C14.9413 13.3161 15.7043 13 16.5 13H21.04C21.5923 13 22.04 13.4477 22.04 14C22.04 14.5523 21.5923 15 21.04 15H16.5C16.2348 15 15.9804 15.1054 15.7929 15.2929C15.6054 15.4804 15.5 15.7348 15.5 16V20.54C15.5 21.0923 15.0523 21.54 14.5 21.54C13.9477 21.54 13.5 21.0923 13.5 20.54V16C13.5 15.2043 13.8161 14.4413 14.3787 13.8787Z" fill="#D8AE5E"/>
<path fill-rule="evenodd" clip-rule="evenodd" d="M6.5 1.33997C7.05228 1.33997 7.5 1.78768 7.5 2.33997V3.99997C7.5 4.5304 7.71071 5.03911 8.08579 5.41418C8.46086 5.78925 8.96957 5.99997 9.5 5.99997C10.2957 5.99997 11.0587 6.31604 11.6213 6.87865C12.1839 7.44125 12.5 8.20432 12.5 8.99997C12.5 9.54768 12.9523 9.99997 13.5 9.99997C13.7652 9.99997 14.0196 9.89461 14.2071 9.70707C14.3946 9.51954 14.5 9.26518 14.5 8.99997C14.5 7.34768 15.8477 5.99997 17.5 5.99997H20.67C21.2223 5.99997 21.67 6.44768 21.67 6.99997C21.67 7.55225 21.2223 7.99997 20.67 7.99997H17.5C16.9523 7.99997 16.5 8.45225 16.5 8.99997C16.5 9.79562 16.1839 10.5587 15.6213 11.1213C15.0587 11.6839 14.2957 12 13.5 12C11.8477 12 10.5 10.6523 10.5 8.99997C10.5 8.73475 10.3946 8.4804 10.2071 8.29286C10.0196 8.10532 9.76522 7.99997 9.5 7.99997C8.43913 7.99997 7.42172 7.57854 6.67157 6.82839C5.92143 6.07825 5.5 5.06083 5.5 3.99997V2.33997C5.5 1.78768 5.94772 1.33997 6.5 1.33997Z" fill="#D8AE5E"/>
<path fill-rule="evenodd" clip-rule="evenodd" d="M0.550003 10C0.550003 9.44772 0.997718 9 1.55 9H4.5C5.29565 9 6.05871 9.31607 6.62132 9.87868C7.18393 10.4413 7.5 11.2044 7.5 12V13C7.5 13.2652 7.60536 13.5196 7.7929 13.7071C7.98043 13.8946 8.23479 14 8.5 14C9.29565 14 10.0587 14.3161 10.6213 14.8787C11.1839 15.4413 11.5 16.2043 11.5 17V20.95C11.5 21.5023 11.0523 21.95 10.5 21.95C9.94772 21.95 9.5 21.5023 9.5 20.95V17C9.5 16.7348 9.39465 16.4804 9.20711 16.2929C9.01957 16.1054 8.76522 16 8.5 16C7.70435 16 6.94129 15.6839 6.37868 15.1213C5.81607 14.5587 5.5 13.7957 5.5 13V12C5.5 11.7348 5.39465 11.4804 5.20711 11.2929C5.01957 11.1054 4.76522 11 4.5 11H1.55C0.997718 11 0.550003 10.5523 0.550003 10Z" fill="#D8AE5E"/>
<path fill-rule="evenodd" clip-rule="evenodd" d="M11.5 2C6.52944 2 2.5 6.02944 2.5 11C2.5 15.9706 6.52944 20 11.5 20C16.4706 20 20.5 15.9706 20.5 11C20.5 6.02944 16.4706 2 11.5 2ZM0.5 11C0.5 4.92487 5.42487 0 11.5 0C17.5751 0 22.5 4.92487 22.5 11C22.5 17.0751 17.5751 22 11.5 22C5.42487 22 0.5 17.0751 0.5 11Z" fill="#D8AE5E"/>
</svg>
