<svg width="22" height="18" viewBox="0 0 22 18" fill="none" xmlns="http://www.w3.org/2000/svg">
<path fill-rule="evenodd" clip-rule="evenodd" d="M3 2C2.44772 2 2 2.44772 2 3V3.45063L10.5032 8.85398C10.6522 8.9468 10.8244 8.99601 11 8.99601C11.1757 8.99601 11.3478 8.9468 11.4968 8.85398C11.4976 8.85351 11.4983 8.85305 11.4991 8.85258L20 3.45063V3C20 2.44771 19.5523 2 19 2H3ZM22 3.98317V3C22 1.34315 20.6569 0 19 0H3C1.34315 0 4.70878e-06 1.34315 4.70878e-06 3V3.98313C-0.000164449 3.99375 -0.000164211 4.00437 4.70878e-06 4.01499V15C4.70878e-06 16.6569 1.34315 18 3 18H19C20.6569 18 22 16.6569 22 15V4.01495C22.0002 4.00436 22.0002 3.99377 22 3.98317ZM20 5.82027L12.5609 10.5474C12.0931 10.8406 11.5521 10.996 11 10.996C10.4479 10.996 9.90694 10.8405 9.43908 10.5474L9.43367 10.544L2 5.82027V15C2 15.5523 2.44772 16 3 16H19C19.5523 16 20 15.5523 20 15V5.82027Z" fill="#D8AE5E"/>
</svg>
